<?xml version="1.0" encoding="UTF-8" standalone="no"?>
<!-- Created with Inkscape (http://www.inkscape.org/) -->

<svg
   width="1600mm"
   height="300mm"
   viewBox="0 0 1600 300"
   version="1.1"
   id="svg5"
   inkscape:version="1.2.2 (732a01da63, 2022-12-09)"
   sodipodi:docname="SectionOne.svg"
   xmlns:inkscape="http://www.inkscape.org/namespaces/inkscape"
   xmlns:sodipodi="http://sodipodi.sourceforge.net/DTD/sodipodi-0.dtd"
   xmlns="http://www.w3.org/2000/svg"
   xmlns:svg="http://www.w3.org/2000/svg">
  <sodipodi:namedview
     id="namedview7"
     pagecolor="#ffffff"
     bordercolor="#000000"
     borderopacity="0.25"
     inkscape:showpageshadow="2"
     inkscape:pageopacity="0.0"
     inkscape:pagecheckerboard="0"
     inkscape:deskcolor="#d1d1d1"
     inkscape:document-units="mm"
     showgrid="false"
     inkscape:zoom="0.64693624"
     inkscape:cx="1701.095"
     inkscape:cy="448.26674"
     inkscape:window-width="2560"
     inkscape:window-height="1377"
     inkscape:window-x="2552"
     inkscape:window-y="-8"
     inkscape:window-maximized="1"
     inkscape:current-layer="layer1" />
  <defs
     id="defs2" />
  <g
     inkscape:label="Warstwa 1"
     inkscape:groupmode="layer"
     id="layer1">
    <rect
       style="fill:#000000;fill-opacity:1;stroke-width:483.092"
       id="rect4132"
       width="725.23376"
       height="469.1969"
       x="-726.42981"
       y="-467.63699"
       transform="matrix(-0.99999937,-0.00111946,-0.76676936,-0.6419227,0,0)" />
    <rect
       style="fill:#000000;fill-opacity:1;stroke-width:264.583"
       id="rect4138"
       width="300"
       height="300"
       x="600"
       y="-1.4210855e-14" />
    <rect
       style="fill:#000000;stroke-width:266.024"
       id="rect2293"
       width="712.56866"
       height="302.87454"
       x="890.71082"
       y="0" />
    <path
       style="fill:#008000;stroke-width:264.583"
       id="path2631"
       d="m 149.15561,17.164733 c -2.213,5.163233 -5.18688,9.965112 -8.23311,14.669907 -3.82349,5.440545 -7.83732,10.74883 -12.04948,15.894187 -2.99518,3.363757 -5.85082,6.853193 -8.84007,10.219812 -0.67188,1.027861 -2.48964,2.090499 -2.46332,3.519887 0.0426,2.313463 2.40862,3.501668 4.02003,4.635296 6.42483,3.942083 12.90136,7.702992 19.80485,10.692127 4.51399,1.954506 9.09015,3.774287 13.6185,5.696265 10.48931,4.612468 20.72814,9.784966 30.91596,15.024449 1.49582,0.795639 6.41899,3.403237 8.04397,4.307777 1.12983,0.62892 4.48572,2.57511 3.36207,1.93521 -2.76327,-1.57363 -5.49986,-3.1945 -8.28096,-4.736428 -1.00589,-0.557697 1.96495,1.196068 2.95405,1.783028 1.05287,0.6248 2.11446,1.23478 3.17169,1.85217 7.3002,4.12881 14.49337,8.4649 21.86519,12.47019 0,0 -10.58694,-8.52959 -10.58694,-8.52959 v 0 c -4.01391,-2.19156 -16.3595,-9.186325 1.16284,0.83853 -10.56418,-6.09697 -20.9193,-12.578219 -31.83343,-18.047183 -10.22002,-5.179946 -20.43606,-10.402136 -30.95969,-14.944013 -4.62706,-1.977599 -9.29618,-3.879024 -13.87955,-5.957125 -1.09174,-0.494999 -2.17219,-1.014831 -3.24941,-1.54069 -0.90616,-0.442357 -3.55416,-1.9001 -2.70028,-1.36374 3.02547,1.900418 6.14866,3.640614 9.22299,5.460921 -3.55494,-2.234261 -0.46039,-0.261914 -3.55091,-2.29938 -0.32906,-0.21694 -0.79691,-0.297307 -0.99579,-0.637593 -0.37689,-0.644874 1.76215,-2.673509 2.04992,-3.104094 2.93586,-3.421367 5.7762,-6.928199 8.68378,-10.374614 4.16384,-5.233871 8.23283,-10.550559 11.99668,-16.081629 3.12067,-4.739815 6.20827,-9.517176 8.77938,-14.584255 0,0 -12.02896,-6.799422 -12.02896,-6.799422 z" />
    <path
       style="fill:#008000;stroke-width:264.583"
       id="path2633"
       d="m 139.76523,70.360193 c 8.65468,-1.091719 17.38658,-1.289908 26.09609,-1.540825 13.99323,-0.362162 27.99128,-0.293307 41.98746,-0.257241 9.97702,-0.03227 19.95345,0.04906 29.92997,0.130198 5.12829,0.0098 10.25647,0.01815 15.38451,0.07182 0,0 -10.97114,-7.971287 -10.97114,-7.971287 v 0 c -5.06602,0.05281 -10.13217,0.05764 -15.19843,0.06287 -9.86019,0.07233 -19.72024,0.141245 -29.58083,0.126791 -13.97601,0.08103 -27.95194,0.209111 -41.92758,0.334823 -8.99917,0.157982 -18.00576,0.337793 -26.98013,1.073964 0,0 11.26008,7.968891 11.26008,7.968891 z" />
    <path
       style="fill:#008000;stroke-width:264.583"
       id="path2635"
       d="m 254.94867,121.90679 c -2.65743,5.9963 -5.72165,11.80076 -8.75964,17.6099 -2.9824,5.77662 -6.44586,11.29134 -10.5989,16.29499 -2.45061,2.85349 -5.00711,5.62249 -7.65349,8.2955 -1.6683,1.64153 -1.38077,3.10042 0.74763,4.3527 12.50014,7.35465 9.81306,6.07713 17.52557,9.33216 5.92647,2.39271 11.58847,5.35424 17.2928,8.21893 12.09363,6.07336 -0.59686,-0.37256 11.81394,5.95451 7.96178,3.91919 15.63412,8.38054 23.40562,12.65451 0,0 -10.40776,-8.38684 -10.40776,-8.38684 v 0 c -7.62412,-4.12864 -15.17673,-8.39363 -22.94995,-12.24121 -9.78278,-4.98818 -19.4954,-10.15363 -29.60124,-14.46764 -7.26141,-3.27493 -2.69561,-1.376 5.63634,3.89677 0.50362,0.31871 -1.07471,-0.51776 -1.62812,-0.73898 -0.2507,-0.10022 -0.59329,-0.0268 -0.77863,-0.22311 -0.11304,-0.11974 0.0291,-0.33969 0.11429,-0.4806 0.15991,-0.26447 0.40162,-0.46985 0.60243,-0.70478 2.52263,-2.81047 5.04591,-5.62357 7.46456,-8.52474 4.11251,-5.14539 7.54674,-10.77394 10.52582,-16.64708 3.06291,-5.79797 6.10162,-11.6099 9.24162,-17.36644 0,0 -11.99289,-6.82855 -11.99289,-6.82855 z" />
    <path
       style="fill:#008000;stroke-width:264.583"
       id="path2637"
       d="m 244.53589,174.36753 c 11.5036,-1.30008 23.09401,-1.76786 34.65715,-2.23291 18.30483,-0.56134 36.61852,-0.84604 54.93099,-1.01347 7.35415,-0.055 14.70853,-0.0488 22.06268,-0.004 0,0 -10.80127,-7.82946 -10.80127,-7.82946 v 0 c -7.10078,0.20548 -14.20194,0.39867 -21.30385,0.56002 -18.34899,0.38816 -36.70221,0.48211 -55.04889,0.9632 -11.93168,0.42295 -23.8741,0.83678 -35.78497,1.65248 0,0 11.28816,7.90382 11.28816,7.90382 z" />
    <path
       style="fill:#008000;stroke-width:264.583"
       id="path2639"
       d="m 364.76199,207.25979 c -2.94323,5.03691 -6.47002,9.67694 -9.90648,14.37851 -3.47879,4.47832 -6.76248,9.09883 -10.03234,13.73012 -1.96799,3.16901 -4.7209,5.6774 -7.53827,8.07047 -0.76454,0.74798 -3.36947,2.3132 -3.22016,3.60491 0.22185,1.91941 1.45555,2.16357 2.93965,3.17143 8.23706,6.1408 18.04347,9.07754 26.96652,13.85018 1.46987,0.78618 5.80739,3.27554 4.34411,2.47711 -2.19027,-1.19507 -4.35025,-2.44486 -6.52539,-3.66729 6.97336,4.33144 13.93053,8.68868 20.75781,13.24721 1.57863,1.13869 3.20315,2.21102 4.82425,3.28756 0,0 12.75956,4.98835 12.75956,4.98835 v 0 c -1.68037,-1.11112 -3.42112,-2.12934 -5.01737,-3.36413 -7.00091,-4.59044 -14.08594,-9.04523 -21.18977,-13.47621 -7.99007,-4.67468 -15.89098,-9.70273 -24.2815,-13.68169 -1.36451,-0.64708 -2.74304,-1.26415 -4.11379,-1.8979 -1.33152,-0.61562 -5.16441,-2.73326 -3.99302,-1.85021 2.52442,1.90303 5.39639,3.29479 8.09459,4.94218 -0.7298,-0.35686 -1.44286,-0.75023 -2.18943,-1.07058 -0.37957,-0.16288 -0.84,-0.14228 -1.18084,-0.3756 -0.6214,-0.42541 2.47235,-2.7164 2.65483,-2.94841 2.83517,-2.53429 5.64349,-5.11676 7.61622,-8.41629 3.19111,-4.66409 6.34786,-9.35157 9.81983,-13.81552 3.45723,-4.69381 6.9384,-9.36446 10.28628,-14.13683 0,0 -11.87529,-7.04737 -11.87529,-7.04737 z" />
    <path
       style="fill:#008000;stroke-width:264.583"
       id="path2641"
       d="m 356.28749,254.47976 c 10.47469,-0.16733 20.9314,-0.83101 31.39702,-1.26542 11.92154,-0.47853 23.85226,-0.63104 35.78238,-0.59399 3.62299,0.0174 7.24593,0.0435 10.86882,0.0762 0,0 -11.02326,-8.00725 -11.02326,-8.00725 v 0 c -3.51718,0.0394 -7.03432,0.0852 -10.55081,0.16918 -11.81423,0.27251 -23.63137,0.45465 -35.44115,0.88998 -10.7102,0.42448 -21.43242,1.08169 -32.15317,0.65201 0,0 11.12017,8.07929 11.12017,8.07929 z" />
    <path
       style="fill:#008000;stroke-width:264.583"
       id="path2649"
       d="m 307.62897,79.562049 c 0.18786,-0.765662 0.31994,-1.547204 0.56359,-2.296986 1.32398,-4.074474 3.43649,-7.830272 5.62018,-11.491706 2.91864,-4.893796 2.84466,-4.599458 6.19143,-9.394332 6.30071,-8.765522 14.04583,-16.303599 21.66705,-23.892301 0.42735,-0.432483 4.20648,-4.31586 4.97726,-4.896175 0.52223,-0.393184 1.10098,-0.834763 1.75321,-0.878737 0.43087,-0.02905 1.49029,0.868481 1.09871,0.686453 -3.58482,-1.666323 -6.82414,-4.299682 -10.68629,-5.143039 -1.04931,-0.229134 0.70877,2.027795 1.06315,3.041692 2.49452,10.63539 4.61423,21.36526 6.51526,32.122922 1.6178,8.923618 2.53611,17.946266 3.79516,26.92128 0,0 12.06984,5.914884 12.06984,5.914884 v 0 c -1.56906,-9.03706 -2.69147,-18.143468 -4.27151,-27.179926 -1.85677,-10.703512 -4.04744,-21.343389 -6.00824,-32.02774 -0.23876,-1.084945 0.11486,-2.517741 -0.71628,-3.254838 -3.84387,-3.408903 -8.31876,-6.057633 -12.73836,-8.67735 -0.45141,-0.26756 -1.08054,-0.009 -1.56128,0.201255 -2.51738,1.10112 -4.47969,4.601844 -6.52936,6.292817 -7.5188,7.761859 -15.17497,15.447099 -21.55534,24.207028 -5.20931,7.262854 -10.40033,14.794452 -13.41525,23.275236 0,0 12.16707,6.469563 12.16707,6.469563 z" />
    <path
       style="fill:#008000;stroke-width:264.583"
       id="path2651"
       d="m 327.69056,60.736209 c 6.56018,0.114787 13.12185,0.440659 19.66851,0.881137 0,0 -10.80074,-7.947723 -10.80074,-7.947723 v 0 c -6.67562,-0.361244 -13.35643,-0.625597 -20.02914,-1.042641 0,0 11.16137,8.109227 11.16137,8.109227 z" />
    <path
       style="fill:#008000;stroke-width:264.583"
       id="path2653"
       d="m 395.84738,35.208051 c 0.3193,9.502907 0.057,19.019152 -0.0555,28.525046 -0.0794,4.714928 -0.10805,9.438211 -0.47371,14.142728 -0.17354,2.232723 -0.3122,4.560194 -1.15456,6.655279 4.04313,1.884172 7.88474,4.281339 12.12937,5.652516 0.63358,0.204673 -0.45894,-1.258771 -0.56358,-1.916325 -0.19543,-1.228068 -0.25033,-2.474907 -0.33267,-3.715697 -0.23161,-3.490084 -0.31673,-6.184812 -0.16414,-9.705303 0.0767,-1.770012 0.26106,-3.533716 0.39158,-5.300572 0.78835,-6.572104 2.1567,-13.150559 5.30217,-19.040914 1.5861,-2.970204 2.31087,-3.633721 4.35531,-6.154129 2.1508,-2.037919 4.445,-4.85317 7.59216,-5.335897 1.83407,-0.281323 2.8234,0.176379 4.61804,0.622012 0.90035,0.34771 1.8247,0.638717 2.70105,1.043127 0.87551,0.40403 3.38252,1.853039 2.54381,1.377252 -3.08718,-1.751372 -6.09888,-3.649652 -9.28973,-5.204211 -0.72882,-0.355071 1.29191,0.990883 1.84952,1.579372 1.54807,1.633852 1.51659,2.073021 2.37775,4.113895 0.10205,0.815588 0.30017,1.624838 0.30613,2.446766 0.028,3.849992 -1.7893,6.330373 -4.31649,8.945824 -0.3673,0.488064 -1.05786,1.139132 -0.86181,1.88636 0.12002,0.457303 0.37217,0.938917 0.77343,1.18894 4.37584,2.726544 8.93604,5.145905 13.43496,7.664175 0.66194,0.370517 1.37097,0.650576 2.04415,1.000249 0.73707,0.382855 1.45698,0.797835 2.18548,1.196755 -19.03121,-10.110395 -9.03285,-6.004771 -5.89364,-2.903434 1.94516,1.921687 2.93962,4.305326 3.97293,6.775648 0.97316,2.953877 1.88026,6.205525 1.1304,9.330116 -0.46281,1.928524 -0.81065,2.098874 -1.93659,3.704662 -0.5888,0.537096 -1.12522,1.137959 -1.76638,1.611286 -5.06984,3.742586 -12.27281,4.673179 -18.31253,5.554953 -4.60764,0.553305 -9.24203,0.834877 -13.87798,1.000056 -0.95824,0.03414 -5.30219,0.180269 -6.49859,0.04326 -0.75136,-0.08604 -1.46992,-0.356402 -2.20488,-0.534604 -5.02554,-3.142808 -2.0312,-1.228122 9.4148,5.005131 0,0 -12.61387,-5.503714 -12.61387,-5.503714 v 0 c 12.872,8.405378 7.73742,6.42735 14.04268,8.677047 0.75475,0.09099 1.50466,0.241951 2.26422,0.272979 1.19097,0.04865 5.37115,-0.192551 6.33003,-0.247928 4.62751,-0.267253 9.25578,-0.58183 13.85607,-1.166056 6.41228,-0.953066 13.78439,-1.919232 19.11265,-5.987129 0.71019,-0.542195 1.30027,-1.225836 1.9504,-1.838754 1.27688,-1.841031 1.68291,-2.077675 2.26042,-4.25147 0.88349,-3.325516 0.0674,-6.810701 -0.91708,-10.00387 -0.93308,-2.519015 -1.853,-5.229272 -3.59854,-7.337856 -3.49533,-4.222334 -17.97198,-8.79952 -17.26004,-10.688507 -0.74703,-0.395867 -1.49095,-0.79759 -2.24105,-1.187604 -7.05292,-3.667188 4.71096,2.721766 7.96092,4.841812 0.88463,0.577077 -1.50842,-0.20183 -1.50649,-0.217252 0.0378,-0.30184 0.32002,-0.517425 0.48004,-0.776137 3.55224,-4.130887 5.07978,-7.127507 4.55324,-12.780862 -0.26247,-0.84119 -0.42543,-1.720159 -0.7874,-2.523567 -0.55084,-1.222576 -1.95697,-3.248929 -3.12172,-3.990117 -4.50342,-2.865758 -9.16678,-5.473732 -13.80799,-8.110472 -0.84614,-0.480692 -1.73813,-0.882589 -2.64464,-1.236472 -0.93324,-0.364318 -1.90881,-0.609129 -2.86325,-0.913693 -2.25639,-0.314346 -2.96293,-0.661681 -5.14775,-0.07453 -3.25787,0.875525 -5.54935,3.771686 -7.7406,6.100762 -2.02531,2.660986 -2.78927,3.436792 -4.36936,6.518627 -3.11512,6.075828 -4.51297,12.78667 -5.38437,19.505136 -0.44188,5.028854 -0.57942,5.463212 -0.63421,10.434733 -0.023,2.093129 0.1125,6.032907 0.11073,8.258167 0,0.834893 -0.74129,2.024348 -0.058,2.504009 3.89417,2.733381 8.50268,4.271742 12.75401,6.407612 0.55115,-2.376812 0.71826,-4.769889 0.83875,-7.206606 0.23572,-4.767496 0.21487,-9.542476 0.23768,-14.314041 0.12184,-9.394319 0.28993,-18.788969 0.78274,-28.17255 0,0 -12.25849,-6.246018 -12.25849,-6.246018 z" />
    <path
       style="fill:#008000;stroke-width:264.583"
       id="path2655"
       d="m 471.24093,41.198699 c -3.1495,5.038 -5.10672,10.794479 -6.30195,16.595156 -0.34822,1.690066 -0.56473,3.404618 -0.84709,5.106926 -0.51165,6.495392 -0.32629,13.277625 2.2924,19.362968 0.50636,1.1767 1.02412,2.386835 1.84171,3.373025 0.8272,0.997754 2.00173,1.64683 3.0026,2.470245 5.17996,2.433677 10.11819,5.467876 15.53985,7.301031 1.51254,0.511416 3.19746,-0.15889 4.77028,-0.433811 4.75991,-0.832014 9.74296,-2.915673 13.70452,-5.689719 1.27828,-0.895122 2.38876,-2.008716 3.58314,-3.013077 2.69878,-3.231949 3.20368,-3.422933 5.02396,-7.229859 0.62979,-1.317109 1.25278,-2.6582 1.60573,-4.074824 0.81508,-3.27153 0.79809,-6.893033 0.43032,-10.212649 -0.1828,-1.649883 -0.5961,-3.266003 -0.89416,-4.899004 -1.02539,-3.309776 -1.24544,-4.84346 -3.07856,-7.74546 -1.30307,-2.062906 -2.87969,-3.685323 -5.04205,-4.856998 -14.97524,-8.114385 -9.84155,-7.084441 -19.229,-8.068794 -1.29984,-0.04603 -2.59971,-0.09206 -3.89958,-0.138092 0,0 10.71787,7.860059 10.71787,7.860059 v 0 c 1.26508,0.06812 2.53016,0.136247 3.79526,0.204372 7.5143,1.203399 4.23392,1.263671 -3.82402,-4.720113 -0.92763,-0.688851 2.08232,1.040849 2.98495,1.762159 3.14076,2.509885 4.64714,6.275353 5.79369,9.986071 0.84561,3.981402 1.43414,5.590897 1.30479,9.726691 -0.13989,4.473332 -1.60684,8.509522 -4.14065,12.180877 -0.80058,1.159992 -1.80403,2.16598 -2.70605,3.248972 -1.14438,0.946277 -2.20991,1.996959 -3.43316,2.838834 -2.37201,1.632503 -5.88078,3.304439 -8.61398,4.146756 -1.54869,0.477277 -3.14137,0.841129 -4.75036,1.03463 -1.53715,0.184861 -5.314,-1.300472 -4.6437,0.09512 1.33398,2.777403 4.91289,3.719859 7.36933,5.57979 -1.0723,-0.65196 -2.32079,-1.077333 -3.21696,-1.955874 -0.9003,-0.882615 -1.46862,-2.062213 -2.03211,-3.190068 -2.90107,-5.806911 -3.16441,-12.481062 -2.72163,-18.820997 0.28543,-1.659869 0.5039,-3.332652 0.85627,-4.97961 1.19745,-5.596733 3.13669,-11.232213 6.6593,-15.805763 0,0 -11.90096,-7.038975 -11.90096,-7.038975 z" />
    <path
       style="fill:#008000;stroke-width:264.583"
       id="path2657"
       d="m 531.02261,39.346425 c -0.63471,6.761845 -1.39431,13.603666 -0.79217,20.399256 0.14031,1.58355 0.42778,3.1506 0.64167,4.725903 1.04124,4.68372 2.10503,9.995349 5.64888,13.553881 0.7098,0.712743 1.51331,1.349219 2.39014,1.842172 4.77629,2.685259 9.69119,5.116166 14.53679,7.674248 1.12541,0.139491 2.24282,0.381373 3.37624,0.418475 4.87937,0.159737 9.70061,-1.564081 13.82708,-4.060777 0.98941,-0.59863 1.90783,-1.307383 2.86176,-1.961076 4.90733,-4.083547 8.11236,-9.641366 10.27088,-15.585522 0.45453,-1.251643 0.81267,-2.536208 1.21902,-3.804311 0.99158,-3.405862 1.57697,-6.906321 2.22827,-10.387012 0,0 -11.85442,-6.297642 -11.85442,-6.297642 v 0 c -0.54663,3.454397 -1.04619,6.925704 -2.00965,10.29667 -0.39163,1.237483 -0.73644,2.490767 -1.17488,3.712446 -2.05184,5.717175 -5.16964,11.016726 -9.94868,14.861354 -0.91934,0.615167 -1.80324,1.28695 -2.75806,1.845504 -4.00889,2.345187 -8.6759,3.807581 -13.36215,3.343478 -1.09744,-0.108688 -2.1639,-0.426982 -3.24586,-0.640471 2.8524,1.832149 5.73263,3.621656 8.55718,5.496449 0.81775,0.542774 -1.7721,-0.880648 -2.53441,-1.498847 -3.86763,-3.136423 -5.11945,-8.457392 -6.2439,-13.017396 -0.23914,-1.540933 -0.55677,-3.071723 -0.71742,-4.622805 -0.68223,-6.585837 0.018,-13.289092 1.26016,-19.762415 0,0 -12.17647,-6.531562 -12.17647,-6.531562 z" />
    <path
       style="fill:#008000;stroke-width:264.583"
       id="path2659"
       d="m 616.0172,37.782624 c -1.3516,11.256658 -2.53551,22.531403 -3.67859,33.810821 0,0 11.52142,5.997881 11.52142,5.997881 v 0 c 0.82915,-11.190194 1.85568,-22.412033 4.25087,-33.392914 0,0 -12.0937,-6.415788 -12.0937,-6.415788 z" />
    <path
       style="fill:#008000;stroke-width:264.583"
       id="path2661"
       d="m 605.39195,35.737744 c 9.71569,0.251558 19.39544,1.311323 29.06615,2.217875 0,0 -9.78786,-7.256674 -9.78786,-7.256674 v 0 c -10.11857,-1.010711 -20.21965,-2.285807 -30.36724,-2.952858 0,0 11.08895,7.991657 11.08895,7.991657 z" />
    <path
       style="fill:#008000;stroke-width:264.583"
       id="path2667"
       d="m 414.20134,219.54557 c 2.42422,-8.28168 5.34067,-16.40914 8.34297,-24.49582 3.68615,-10.33956 7.90546,-20.47602 11.69242,-30.77719 3.0036,-8.48784 6.2743,-16.87426 9.47859,-25.28678 1.19473,-2.55548 1.87777,-5.35263 3.15322,-7.87365 0.20823,-0.41157 0.3692,-0.91423 0.76301,-1.15435 0.17738,-0.10815 0.66797,0.48762 0.48183,0.39535 -3.7651,-1.86637 -7.48821,-3.81627 -11.23233,-5.7244 0.3511,0.55401 0.7451,1.08305 1.05328,1.66205 1.29834,2.43943 2.14421,5.14327 3.10121,7.72406 1.3448,3.62651 0.94813,2.56713 2.40705,6.21079 2.48674,5.72446 4.88664,11.48492 7.16203,17.29644 1.6278,4.14276 3.09353,8.34578 4.60259,12.53242 0.47341,1.377 0.94895,2.75337 1.43009,4.12768 0.0808,0.23062 0.57563,1.69497 0.70898,1.77019 4.14795,2.33977 8.44648,4.40193 12.66971,6.60289 0.35062,-0.38527 0.73559,-0.74189 1.05187,-1.15582 0.23882,-0.31257 2.19348,-3.37184 2.30106,-3.54037 1.68156,-2.63414 3.35232,-5.27364 4.99975,-7.92927 3.28769,-5.75827 7.08726,-11.18605 10.81619,-16.65981 2.95598,-4.37096 6.3676,-8.40027 9.67579,-12.50204 1.07286,-1.10163 1.78083,-2.92077 2.89904,-3.97193 0.17719,-0.16657 0.45789,-0.44746 0.65966,-0.31171 0.26696,0.17962 0.55203,1.06311 0.25913,0.92988 -3.78751,-1.72286 -7.35769,-3.8882 -11.03654,-5.8323 0.29933,0.86238 0.62958,1.71462 0.89795,2.58713 0.97851,3.18144 1.83324,6.3998 2.78672,9.58884 1.77588,5.93977 3.56764,11.87492 5.34837,17.81327 3.20791,9.90952 5.46026,20.07893 7.63971,30.25192 1.60041,6.88622 2.65388,13.86726 3.49096,20.88018 0.0911,0.83076 0.18214,1.66151 0.27321,2.49226 0,0 12.1303,6.00368 12.1303,6.00368 v 0 c -0.10488,-0.84305 -0.20973,-1.68609 -0.31461,-2.52914 -0.97076,-7.09652 -1.99824,-14.18826 -3.7619,-21.14268 -2.28447,-10.2273 -4.44691,-20.5013 -7.80714,-30.44614 -3.02546,-9.85071 -6.13643,-19.70497 -8.18637,-29.8155 -4.10041,-2.83045 -8.05296,-5.88801 -12.30119,-8.49134 -0.32036,-0.19632 -0.75936,0.10746 -1.09064,0.28476 -1.39634,0.74733 -2.47227,3.58889 -3.59172,4.72383 -3.23138,4.1899 -6.55135,8.31822 -9.51958,12.70324 -1.84927,2.70733 -3.75372,5.38363 -5.55114,8.12584 -1.75532,2.67804 -1.78993,2.86258 -3.45427,5.62223 -0.59838,0.99216 -1.20692,1.97814 -1.81038,2.96721 -1.68415,2.6229 -3.39556,5.22249 -5.16639,7.78793 -0.23553,0.3412 -1.83451,2.67335 -2.30293,3.14669 -0.18505,0.18699 -0.45183,0.26959 -0.67773,0.40439 3.8237,2.25393 7.65942,4.48757 11.47109,6.7618 0.1946,0.11611 -0.47358,-0.11006 -0.61688,-0.28561 -0.22855,-0.28 -0.3003,-0.6581 -0.4291,-0.99581 -0.52946,-1.38829 -0.99544,-2.8043 -1.51609,-4.19643 -1.55501,-4.22122 -3.08462,-8.45246 -4.74202,-12.63503 -2.30389,-5.83091 -4.73411,-11.60751 -7.25215,-17.34983 -2.11966,-5.23918 -3.82143,-10.63006 -6.02443,-15.8347 -4.27098,-2.52989 -8.37393,-5.36784 -12.81298,-7.58967 -0.74599,-0.37338 -1.73318,2.07754 -1.73524,2.08234 -1.12556,2.61695 -1.81218,5.41109 -2.94108,8.02753 -3.04782,8.48912 -6.28809,16.90818 -9.20732,25.44399 -3.73499,10.31614 -8.00071,20.42882 -11.69995,30.75905 -3.05417,8.04253 -5.90587,16.16 -9.01721,24.18016 0,0 12.05153,6.6373 12.05153,6.6373 z" />
    <path
       style="fill:#008000;stroke-width:264.583"
       id="path2669"
       d="m 540.9933,130.85936 c 0.63309,7.69639 0.99388,15.41044 1.47269,23.11722 0.91419,12.17543 1.63539,24.36111 2.20676,36.55719 0.25564,5.87179 0.37349,11.74786 0.42331,17.62452 0,0 11.96033,6.05078 11.96033,6.05078 v 0 c -0.29025,-5.96296 -0.58013,-11.92594 -0.88768,-17.88804 -0.61391,-12.17181 -1.2768,-24.34013 -2.07973,-36.5009 -0.34499,-7.55784 -0.65953,-15.12167 -0.78044,-22.68585 0,0 -12.31524,-6.27492 -12.31524,-6.27492 z" />
    <path
       style="fill:#008000;stroke-width:264.583"
       id="path2671"
       d="m 553.36556,138.33206 c 10.33079,-0.0349 20.65501,0.19012 30.97659,0.61028 8.39857,0.47279 16.81671,0.70113 25.20056,1.40563 0,0 -10.82352,-7.9703 -10.82352,-7.9703 v 0 c -8.19928,-0.35705 -16.40737,-0.50544 -24.60421,-0.93179 -10.61382,-0.46189 -21.23705,-0.70802 -31.84483,-1.26957 0,0 11.09541,8.15575 11.09541,8.15575 z" />
    <path
       style="fill:#008000;stroke-width:264.583"
       id="path2673"
       d="m 558.27355,168.32679 c 8.27104,-0.23802 16.54736,-0.23818 24.82123,-0.25771 7.63479,-0.0336 15.26841,0.1064 22.90233,0.18879 3.6105,-0.004 7.22082,0.0306 10.8313,0.0351 0.46776,0.002 0.93554,0.005 1.4033,0.007 0,0 -11.11872,-8.07822 -11.11872,-8.07822 v 0 c -0.46128,0.002 -0.92255,0.005 -1.38383,0.007 -3.57822,0.005 -7.15634,0.039 -10.73462,0.0351 -7.46069,0.083 -14.92104,0.22457 -22.38264,0.18878 -8.5104,-0.0199 -17.02286,-0.0259 -25.53067,-0.25771 0,0 11.19232,8.13168 11.19232,8.13168 z" />
    <path
       style="fill:#008000;stroke-width:264.583"
       id="path2675"
       d="m 556.65409,213.57137 c 6.62702,-1.84726 13.51465,-2.5304 20.33566,-3.25476 10.46816,-0.91481 20.95794,-1.51987 31.45814,-1.89994 4.93197,-0.2668 9.86793,-0.43483 14.80452,-0.58446 0,0 -10.66771,-7.69059 -10.66771,-7.69059 v 0 c -4.92527,0.2147 -9.85131,0.40826 -14.7769,0.61572 -10.53221,0.54543 -21.06789,1.09069 -31.58236,1.91451 -7.0287,0.77528 -14.09871,1.49676 -20.99505,3.10982 0,0 11.4237,7.7897 11.4237,7.7897 z" />
    <path
       style="fill:#008000;stroke-width:264.583"
       id="path2677"
       d="m 657.2541,15.83309 c 0.0335,8.463776 -0.0293,16.9292 -0.0976,25.393052 -0.087,6.753968 -0.17031,13.515239 0.25506,20.260471 0.25336,4.01797 0.63087,7.724161 1.00462,11.744941 1.2038,12.407551 2.32164,24.821848 3.27165,37.251456 0.81881,9.34127 1.57009,18.68705 2.24433,28.03987 0.34859,4.45243 0.51115,8.92559 0.97393,13.36914 0.56314,5.40683 1.36668,10.80041 2.027,16.19648 0.92549,8.77368 2.13305,17.51318 2.74283,26.31665 0.29893,4.79705 0.32496,9.60367 0.52978,14.40452 0,0 12.18258,6.11063 12.18258,6.11063 v 0 c -0.40627,-4.85382 -0.53158,-9.72049 -0.8559,-14.58015 -0.14661,-1.99055 -0.44921,-6.28948 -0.6508,-8.24236 -0.63013,-6.10477 -1.75125,-12.1532 -2.33016,-18.26499 -0.64243,-5.34592 -1.35376,-10.6999 -1.87632,-16.05901 -0.43349,-4.44576 -0.58697,-8.91793 -0.98036,-13.36707 -0.71747,-9.37282 -1.35805,-18.75222 -2.33698,-28.10307 -1.186,-12.44063 -2.38525,-24.880336 -3.44038,-37.33299 -0.0512,-0.68204 -0.79859,-10.551747 -0.8577,-11.612261 -0.37536,-6.734381 -0.34721,-13.490585 -0.35123,-20.232062 0.0952,-8.344403 0.19378,-16.701281 0.84952,-25.024103 0,0 -12.30386,-6.269144 -12.30386,-6.269144 z" />
    <path
       style="fill:#008000;stroke-width:264.583"
       id="path2679"
       d="m 660.10234,242.01495 c 0.12009,1.92059 0.21714,3.93226 1.04888,5.7118 2.34556,5.01839 11.42394,7.93875 14.0716,9.22407 0.5392,0.26174 1.16269,-0.29174 1.74403,-0.4376 0.56944,-0.46574 1.19872,-0.86665 1.70831,-1.39721 2.43094,-2.53093 3.62738,-6.22781 3.42643,-9.69957 -0.05,-0.86321 -0.29109,-1.70464 -0.43664,-2.55695 -0.35372,-0.73727 -0.58584,-1.54641 -1.06119,-2.21179 -0.49702,-0.69569 -1.07709,-1.38003 -1.81425,-1.81315 -4.95369,-2.91054 -10.4907,-8.72194 -16.8412,-7.34972 -2.38665,0.5157 -2.95204,1.24057 -4.85077,2.63979 -0.57052,0.71312 -1.23833,1.35828 -1.71159,2.13934 -1.40152,2.31312 -1.7967,5.21494 -0.76568,7.76329 0.90927,2.24739 1.85651,2.70202 3.62223,4.24633 4.77673,2.58167 9.38998,5.49183 14.33015,7.74501 0.96285,0.43914 2.10878,0.28006 3.16608,0.2349 3.04827,-0.13019 6.10571,-1.25971 8.44003,-3.23401 0.72379,-0.61215 1.29807,-1.3818 1.94709,-2.07271 0.44919,-0.83252 0.99783,-1.61861 1.34755,-2.49755 0.86717,-2.17932 1.14991,-4.89843 0.34248,-7.14715 -0.22381,-0.62331 -0.40693,-1.36909 -0.95348,-1.74307 -4.21415,-2.88336 -8.75258,-5.2615 -13.12884,-7.89225 -0.69056,0.057 -1.3984,0.007 -2.07166,0.17095 -3.19876,0.77816 -5.97273,3.29353 -7.26191,6.28742 -0.31597,0.73377 -0.44707,1.534 -0.67059,2.30101 -0.11678,1.67847 -0.38796,2.67816 0.27424,4.29151 0.264,0.6432 0.55446,1.36936 1.13724,1.74852 2.70256,1.75831 9.88187,9.00388 15.61121,7.57001 0.71477,-0.17889 1.34871,-0.59386 2.02305,-0.89079 0.57624,-0.67465 1.26455,-1.26783 1.72874,-2.02396 1.55715,-2.53642 2.21461,-6.79676 0.95459,-9.58475 -0.25316,-0.56018 -0.70229,-1.00915 -1.05344,-1.51372 -4.42018,-2.42524 -8.64849,-5.2389 -13.26055,-7.27574 -0.57581,-0.25429 -1.2405,0.30762 -1.77879,0.6339 -1.87203,1.13471 -2.92944,3.18604 -3.30113,5.27128 -0.11552,0.64813 -0.0836,1.31405 -0.12538,1.97107 0.1208,0.58816 0.1511,1.20244 0.3624,1.76446 1.75141,4.65845 13.73412,8.35725 14.03183,8.48069 0.59566,0.24698 1.2052,-0.5088 1.7014,-0.9206 1.61946,-1.34399 1.64291,-2.13864 2.40805,-4.05652 0.0908,-0.90836 0.28528,-1.81228 0.27226,-2.72507 -0.12562,-8.81125 -8.40801,-11.17865 -16.08206,-14.12773 -0.72734,-0.27951 -1.36213,0.75707 -2.04322,1.13561 -0.57748,0.58361 -1.23918,1.0945 -1.73244,1.75083 -1.71871,2.28687 -2.63469,5.82099 -0.99078,8.40654 0.28569,0.44936 0.75522,0.7509 1.13284,1.12635 4.45497,2.17956 8.72315,4.79193 13.36492,6.53869 0.55234,0.20786 1.08881,-0.51941 1.49648,-0.94615 1.65603,-1.73354 1.76316,-4.22075 1.20499,-6.41655 -0.186,-0.73167 -0.54435,-1.40833 -0.81653,-2.1125 -4.01105,-5.27957 -2.42048,-3.62603 -14.47088,-8.86618 -0.59613,-0.25923 -1.2899,0.34313 -1.8038,0.7412 -1.30524,1.01105 -2.17685,2.78195 -2.52798,4.34308 -0.19029,0.84608 -0.12026,1.73027 -0.1804,2.5954 0.23075,0.80659 0.31422,1.67082 0.69223,2.41977 2.45383,4.86151 15.12298,9.75613 15.24315,9.8148 1.22074,0.59601 3.59341,-0.21203 4.50435,-0.99593 0.62944,-0.54167 0.94279,-1.36735 1.41417,-2.05103 0.0947,-0.89023 0.36309,-1.77893 0.284,-2.67067 -0.16232,-1.83044 -1.15451,-3.87973 -2.22012,-5.33383 -0.50813,-0.69339 -1.04179,-1.42191 -1.77469,-1.87122 -13.31449,-8.16266 -8.7626,-9.06924 -15.60026,-6.89477 -0.55088,0.52932 -1.10175,1.05864 -1.65264,1.58796 0,0 11.5832,7.20545 11.5832,7.20545 v 0 c 0.42688,-0.32539 0.85376,-0.65078 1.28063,-0.97617 5.20462,-0.18252 2.70341,0.18769 -8.13477,-6.04991 -0.72485,-0.41716 1.38869,0.95584 1.95876,1.56775 1.0508,1.12794 2.15263,3.00962 2.49973,4.54166 0.14616,0.64505 0.0301,1.32247 0.0451,1.9837 -0.94948,1.32614 -0.87548,1.82213 -2.76286,1.89228 -0.69347,0.0258 -2.60514,-0.78769 -2.04798,-0.37399 2.97016,2.20542 6.28573,3.90285 9.42859,5.85428 -0.58182,-0.50112 -1.27522,-0.89631 -1.74543,-1.50338 -0.44204,-0.57066 -0.62188,-1.30286 -0.93279,-1.95429 -0.0291,-1.85804 -0.30896,-2.53349 0.72242,-4.1963 0.29768,-0.47996 0.71249,-0.92465 1.2166,-1.17929 0.40209,-0.2031 1.70993,0.15071 1.34644,-0.11535 -23.99048,-17.56053 -11.20119,-7.189 -8.73633,-5.17059 0.32017,0.60604 0.71549,1.17802 0.96054,1.81814 0.55791,1.45732 0.98127,3.6682 -0.45301,4.83114 -0.3102,0.2515 -0.75343,0.26507 -1.13012,0.39761 3.51028,2.17259 7.02056,4.34518 10.53084,6.51777 -0.47942,-0.17068 -1.03135,-0.20645 -1.43827,-0.51204 -2.15744,-1.6202 -1.3484,-5.09395 0.0763,-6.86261 0.42151,-0.52327 1.01095,-0.88538 1.51644,-1.32808 5.28987,-1.50024 2.81908,-0.36611 -8.33305,-6.89549 -0.61532,-0.36025 1.09799,0.93235 1.51275,1.51232 1.47833,2.06712 1.76334,4.47779 1.46005,6.9308 -0.53448,1.38056 -0.57293,2.25673 -1.93122,3.04274 -0.37335,0.21604 -1.61258,0.005 -1.26706,0.26286 3.27565,2.44804 6.91756,4.36329 10.37635,6.54494 -0.35931,-0.29225 -0.80487,-0.50264 -1.07792,-0.87675 -0.29733,-0.40744 -0.38766,-0.93134 -0.58152,-1.39701 -0.0154,-0.56619 -0.10457,-1.13519 -0.046,-1.69855 0.16361,-1.5743 0.93972,-3.38761 2.57291,-3.96342 3.71205,-1.30875 16.37916,9.28941 -8.84505,-6.43857 0.44318,0.33618 0.99111,0.56707 1.32953,1.00853 1.59063,2.07485 1.12771,6.25437 -0.20793,8.32446 -0.36626,0.56766 -0.95282,0.95795 -1.42925,1.43693 -0.57473,0.15742 -1.12919,0.43948 -1.72419,0.47224 -0.6228,0.0343 -2.35487,-0.64283 -1.85081,-0.27544 3.10615,2.26404 6.53539,4.04784 9.80308,6.07175 -0.45929,-0.40616 -1.02921,-0.71417 -1.3779,-1.21849 -0.86384,-1.24933 -0.64233,-2.24227 -0.65021,-3.66183 0.1598,-0.66755 0.22434,-1.36539 0.47939,-2.00265 1.02233,-2.55421 3.65202,-4.91309 6.51751,-4.99394 0.57793,-0.0163 1.13324,0.23 1.69984,0.345 -23.98493,-14.71445 -10.59312,-7.8502 -8.85563,-4.82188 0.31663,0.55185 0.50975,1.17766 0.62564,1.80326 0.44913,2.42499 -0.24996,4.64269 -1.54554,6.6772 -0.58769,0.60452 -1.1044,1.28729 -1.7631,1.81356 -2.18874,1.74875 -5.06892,2.62625 -7.86099,2.49707 -1.00555,-0.0465 -3.7347,-1.17743 -2.97537,-0.51658 2.6112,2.27254 5.84721,3.70693 8.77081,5.56039 -1.65013,-1.10373 -2.89523,-1.64669 -3.92732,-3.42088 -1.19782,-2.05905 -1.04735,-4.63163 0.15621,-6.63606 0.4059,-0.67601 1.00563,-1.21479 1.50844,-1.82219 1.7185,-1.12792 2.22922,-1.76034 4.37531,-1.96098 0.83762,-0.0783 3.15706,0.73233 2.51696,0.18643 -2.75839,-2.35234 -6.09098,-3.93354 -9.16469,-5.85561 -0.67887,-0.4245 1.40933,0.79883 1.97847,1.36194 0.52917,0.52353 0.84066,1.22872 1.26098,1.84308 0.20092,0.76246 0.50194,1.50537 0.60275,2.28739 0.3825,2.9673 -0.58973,6.51376 -2.91566,8.52971 -0.39513,0.34245 -0.91027,0.51475 -1.36541,0.77213 -5.14297,-0.57471 -2.96653,-0.5185 8.94263,6.15745 0.50125,0.28099 -0.88265,-0.75784 -1.20259,-1.23517 -1.00891,-1.5053 -1.08521,-3.38771 -1.17644,-5.12382 0,0 -12.25285,-6.33979 -12.25285,-6.33979 z" />
    <path
       style="fill:#b85fd3;stroke-width:1545.75;fill-opacity:1"
       d="m 760.50772,400.1872 c -68.79865,-39.67484 -133.36429,-71.89415 -200.17429,-99.89022 -38.59985,-16.17488 -50.32879,-21.88444 -78.86251,-38.3897 -26.98535,-15.60961 -33.21164,-20.21545 -35.25621,-26.0805 -1.64776,-4.72677 -1.27458,-5.26996 23.18946,-33.75358 25.60216,-29.80874 58.95716,-73.25795 70.87596,-92.32514 3.72003,-5.95112 10.63161,-18.224607 15.35908,-27.274407 l 8.59539,-16.454179 22.0467,12.391949 22.04669,12.391949 -5.63049,10.245218 c -17.01733,30.96455 -49.83022,77.47462 -81.25663,115.17577 -8.42134,10.10278 -15.11447,18.46905 -14.87363,18.5917 0.24085,0.12264 10.52391,-0.24899 22.85124,-0.82586 12.32734,-0.57689 104.15812,-1.57913 204.0684,-2.22725 l 181.65506,-1.17839 19.01108,13.77764 19.01109,13.77761 -185.20867,0.94498 c -170.16438,0.86822 -203.50882,1.63019 -232.36868,5.30995 -6.67237,0.85077 -7.57704,0.45495 -21.14697,-9.2525 -7.79702,-5.57771 -14.88476,-10.14128 -15.75053,-10.14128 -1.4849,0 -9.46021,9.40332 -9.46021,11.1541 0,0.85953 14.747,7.49561 57.96553,26.08425 40.18551,17.28413 131.69744,63.38879 173.1237,87.22151 20.40387,11.73843 41.96705,24.11149 47.91817,27.49567 5.95113,3.3842 16.55882,10.68713 23.57265,16.22876 21.58782,17.05655 18.82753,15.91032 -31.30138,-12.99805 z"
       id="path2367"
       transform="scale(0.26458333)" />
    <path
       style="fill:#b85fd3;fill-opacity:1;stroke-width:1545.75"
       d="m 1345.3452,328.72088 -21.0954,-10.29692 -2.5978,-20.09471 c -5.0964,-39.42111 -11.583,-80.86817 -17.6598,-112.83956 -7.7024,-40.52422 -11.9491,-61.00111 -12.8346,-61.88665 -0.9805,-0.98046 -49.7114,48.75234 -61.9707,63.24476 -5.666,6.69809 -9.9925,12.67874 -9.6146,13.29033 0.378,0.61159 12.2414,1.59994 26.3631,2.19634 l 25.6758,1.08434 18.8184,13.91683 18.8184,13.91683 -34.7793,-1.05167 -34.7793,-1.05165 -13.7279,-9.81618 c -7.5504,-5.3989 -14.2493,-9.49397 -14.8865,-9.10016 -2.448,1.51293 -20.1888,28.64939 -30.4995,46.65201 -5.9345,10.36184 -12.4513,24.08718 -14.4817,30.50077 -2.0305,6.41358 -4.0396,11.65387 -4.4646,11.64509 -0.4251,-0.009 -10.1633,-5.06499 -21.6405,-11.23603 -24.2121,-13.01831 -23.5366,-11.523 -14.1181,-31.25524 16.4373,-34.43724 49.0888,-80.09796 84.5197,-118.19502 41.5543,-44.681056 62.1051,-64.921389 65.9174,-64.921389 7.4898,0 52.2622,30.630509 52.2622,35.754579 0,1.4783 4.7999,27.95176 10.6665,58.8299 12.5565,66.08973 29.8418,171.4196 28.0863,171.1472 -0.4851,-0.0753 -10.375,-4.77049 -21.9775,-10.4338 z m -26.0498,-227.47443 c -1.226,-0.75771 -2.5769,-1.02986 -3.002,-0.60478 -0.425,0.42508 0.2303,1.39282 1.4563,2.15053 1.2259,0.75771 2.5768,1.02986 3.0019,0.60478 0.4251,-0.42508 -0.2302,-1.39282 -1.4562,-2.15053 z"
       id="path2576"
       transform="scale(0.26458333)" />
    <path
       style="fill:#b85fd3;fill-opacity:1;stroke-width:1545.75"
       d="m 1530.8832,373.57615 c -6.7403,-2.75246 -32.7393,-20.42991 -31.6497,-21.51949 0.2795,-0.27952 6.9798,2.29866 14.8896,5.72931 7.9097,3.43065 15.1308,6.21466 16.0469,6.18669 0.9161,-0.028 -4.2468,-3.332 -11.4732,-7.3423 l -13.1388,-7.29145 9.2744,-0.36361 c 43.9018,-1.72117 79.7632,-5.51439 101.0462,-10.68808 23.4535,-5.70134 43.3912,-18.54625 48.3518,-31.15074 2.886,-7.33324 1.8472,-23.36819 -2.3731,-36.63069 -7.1627,-22.50904 -15.2413,-31.73614 -37.6269,-42.97643 -28.1711,-14.14526 -29.1026,-15.43975 -19.2036,-26.68568 9.2205,-10.47506 12.5978,-18.45615 12.5978,-29.7706 0,-12.87302 -4.5613,-22.8524 -11.1019,-24.28895 -9.8577,-2.16511 -18.083,1.95036 -32.3157,16.16879 -15.1202,15.1052 -23.7432,28.70545 -30.4597,48.0416 l -4.5638,13.13885 -0.917,54.10116 c -0.5044,29.75564 -1.4621,56.66721 -2.1282,59.80348 l -1.2111,5.70233 -23.8535,-11.88532 -23.8534,-11.88531 0.3554,-28.59633 c 0.4083,-32.85839 2.1786,-53.24803 6.4627,-74.43868 2.4394,-12.06563 3.0179,-21.32627 3.0179,-48.30461 0,-18.35746 0.5217,-33.34277 1.1594,-33.30069 0.6376,0.0421 6.2964,2.70665 12.575,5.92127 l 11.4158,5.84478 11.7704,-11.871 c 24.3804,-24.58863 36.3051,-23.07758 95.172,12.05982 21.6835,12.94278 28.6936,19.91128 31.8905,31.70099 3.8196,14.08627 -0.9114,32.18961 -12.0656,46.16992 l -4.5151,5.65906 -7.3658,-4.58462 c -8.1913,-5.09838 -13.3205,-5.30363 -6.2119,-0.24858 2.4858,1.76776 15.7726,8.86711 29.5262,15.77632 29.3923,14.76548 34.7892,19.73342 42.1375,38.78808 8.008,20.76557 9.8303,35.46331 5.9872,48.2904 -2.4083,8.03823 -13.3042,20.0043 -23.3657,25.66067 -21.1935,11.9145 -64.2456,19.50794 -120.097,21.18248 -24.1115,0.72291 -27.8258,0.49444 -34.186,-2.10284 z"
       id="path2578"
       transform="scale(0.26458333)" />
    <path
       style="fill:#b85fd3;fill-opacity:1;stroke-width:1545.75"
       d="m 1833.2564,357.23833 c -16.28,-6.34486 -52.93,-25.42054 -58.9077,-30.66049 -20.0277,-17.55575 -26.1027,-70.16628 -13.7035,-118.67482 5.1703,-20.22765 16.3126,-47.50151 20.4076,-49.95361 0.9483,-0.56783 16.4878,8.14704 41.6456,23.35581 1.254,0.75806 -0.046,4.17166 -4.2423,11.14033 -7.7117,12.80632 -14.4344,31.38682 -18.404,50.86583 -5.3589,26.29703 -3.5692,63.80357 3.8978,81.68201 2.0366,4.87635 2.3701,5.02368 11.3717,5.02368 19.7892,0 49.1535,-13.38532 65.7306,-29.96248 22.877,-22.87695 31.0443,-53.05529 23.5404,-86.98172 -2.866,-12.95766 -9.613,-30.51615 -12.7154,-33.09095 -1.194,-0.99092 -6.8264,-2.17537 -12.5163,-2.6321 -10.1525,-0.81495 -10.6932,-1.08886 -28.9978,-14.69185 l -18.6524,-13.86142 16.1486,0.91081 c 18.2002,1.02652 17.5051,0.75238 51.0914,20.14955 24.0733,13.90312 32.3684,21.22646 38.7176,34.18175 9.7069,19.80672 14.6692,53.42727 10.8594,73.57517 -2.2536,11.91795 -10.7504,29.18282 -20.1373,40.91735 -16.3716,20.46594 -47.5014,36.64356 -79.6765,41.40644 -4.4925,0.66503 -8.7188,-0.073 -15.4575,-2.69929 z m -5.4101,-6.2276 c 0,-1.19854 -10.9753,-7.44216 -11.7392,-6.6782 -0.416,0.41601 1.5334,2.22258 4.3321,4.01464 4.8897,3.13104 7.4071,4.03626 7.4071,2.66356 z m 53.7384,-183.77831 c -6.2672,-5.13213 -13.549,-9.17255 -13.549,-7.51788 0,1.65308 13.8788,11.07368 16.2304,11.01677 0.8501,-0.0206 -0.3565,-1.59507 -2.6814,-3.49889 z"
       id="path2580"
       transform="scale(0.26458333)" />
    <path
       style="fill:#b85fd3;fill-opacity:1;stroke-width:1545.75"
       d="m 2091.9106,329.40249 c -12.4452,-4.44501 -57.8399,-29.76562 -63.6025,-35.47669 -14.4215,-14.29248 -24.2466,-50.1839 -24.2466,-88.57367 0,-14.97746 2.7447,-53.17114 3.9094,-54.40097 0.5684,-0.60018 37.0881,18.58597 41.3647,21.73152 2.6206,1.92755 2.6389,2.82486 0.3476,17.06438 -3.1412,19.52049 -3.1846,55.26674 -0.087,71.42513 4.4445,23.18229 10.5812,39.14294 15.8153,41.13292 4.8198,1.8325 22.4628,-0.6722 33.3024,-4.72782 27.256,-10.19778 47.8959,-31.28612 60.9765,-62.30132 5.9506,-14.10947 11.9868,-35.94985 13.6587,-49.42027 0.6081,-4.89967 1.6796,-9.26323 2.3812,-9.69681 0.92,-0.56862 40.5343,19.34221 42.6846,21.45406 0.8812,0.86542 -6.6142,33.28725 -10.5701,45.72158 -9.2091,28.94662 -25.5018,54.49683 -42.8907,67.26149 -23.2889,17.09559 -54.9852,25.2564 -73.0438,18.80647 z m -7.4702,-9.30671 c 0,-1.19854 -10.9753,-7.44215 -11.7393,-6.6782 -0.416,0.41601 1.5335,2.22258 4.3322,4.01465 4.8897,3.13103 7.4071,4.03625 7.4071,2.66355 z"
       id="path2582"
       transform="scale(0.26458333)" />
    <path
       style="fill:#b85fd3;fill-opacity:1;stroke-width:1545.75"
       d="m 2364.5444,139.75669 c -15.5499,-1.54762 -38.9947,-3.40152 -52.0995,-4.11978 -26.9006,-1.4744 -21.6183,0.69039 -51.0165,-20.90775 l -12.3659,-9.085 12.3659,1.02636 c 30.7121,2.54908 98.448,10.0302 100.1424,11.06027 2.4463,1.48714 30.8029,22.24082 32.7146,23.94318 0.9275,0.82589 0.9275,1.23194 0,1.10211 -0.8076,-0.11305 -14.1911,-1.47177 -29.741,-3.01939 z"
       id="path2584"
       transform="scale(0.26458333)" />
    <path
       style="fill:#b85fd3;fill-opacity:1;stroke-width:1545.75"
       d="m 2336.4858,281.2981 c -10.5783,-5.49827 -19.7017,-10.52362 -20.2741,-11.16745 -1.1506,-1.2941 -0.5797,-7.43934 7.1324,-76.77859 2.9231,-26.2815 5.6234,-48.09323 6.0007,-48.47052 0.3773,-0.37729 4.3791,1.37506 8.8929,3.89412 4.5137,2.51905 14.1675,7.77851 21.4527,11.68768 l 13.246,7.10757 -3.4792,19.00675 c -3.9119,21.37056 -9.2208,65.06168 -10.8085,88.95181 -0.5792,8.71415 -1.4752,15.82627 -1.9913,15.8047 -0.5161,-0.0216 -9.5933,-4.53779 -20.1716,-10.03607 z"
       id="path2586"
       transform="scale(0.26458333)" />
    <path
       style="fill:#b85fd3;fill-opacity:1;stroke-width:1545.75"
       d="m 2555.6357,799.89701 -21.1253,-10.68555 -0.8414,-9.71462 c -0.4628,-5.34305 -1.1919,-19.80064 -1.6203,-32.12798 -0.8192,-23.57515 -5.7207,-72.64173 -13.2023,-132.1614 -5.6039,-44.58254 -5.6562,-45.12534 -9.3781,-97.38208 -4.324,-60.71036 -14.7616,-183.69863 -19.5914,-230.84823 -3.7901,-37.00071 -4.1038,-45.90338 -4.6826,-132.88523 l -0.6204,-93.227673 22.1344,11.303056 22.1344,11.303056 -0.1527,9.274484 c -0.084,5.100967 -0.7,35.706767 -1.3689,68.012887 -1.5597,75.33132 -0.098,100.21408 15.435,262.77706 2.9244,30.60579 7.4131,83.47035 9.9748,117.4768 4.4544,59.13 8.0763,93.98346 16.3042,156.89336 4.8438,37.03614 10.4584,113.04432 8.3292,112.75859 -0.3319,-0.0445 -10.1098,-4.88948 -21.7286,-10.76653 z"
       id="path2588"
       transform="scale(0.26458333)" />
    <path
       style="fill:#b85fd3;fill-opacity:1;stroke-width:1545.75"
       d="m 2543.083,966.9201 c -13.6843,-5.34744 -54.2506,-28.59357 -60.7888,-34.83442 -12.3305,-11.76984 -12.7549,-29.88966 -1.0147,-43.31992 4.5008,-5.14866 13.2713,-11.24217 17.8122,-12.37536 2.3404,-0.58406 5.9149,-3.0342 7.9432,-5.44475 2.0284,-2.41055 4.0665,-4.00427 4.5291,-3.5416 0.4627,0.46267 3.2407,0.0493 6.1734,-0.91854 4.8115,-1.58795 6.8756,-1.14482 21.1415,4.53868 21.6275,8.61636 27.1263,11.60112 35.3965,19.21329 3.9175,3.60579 10.4962,8.83932 14.6193,11.63006 12.0537,8.15857 14.8241,19.7684 8.6532,36.26169 -4.1652,11.13249 -16.584,22.78177 -28.1115,26.36946 -4.4731,1.39218 -9.3408,3.18972 -10.8171,3.99452 -3.792,2.0673 -7.0696,1.73542 -15.5363,-1.57311 z m 52.3397,-48.77934 c -3.1766,-2.40326 -4.9517,-2.02128 -3.2679,0.70322 0.5604,0.90673 2.1951,1.62647 3.6327,1.59943 2.2949,-0.0432 2.2504,-0.32413 -0.3648,-2.30265 z"
       id="path2590"
       transform="scale(0.26458333)" />
    <path
       style="fill:#b85fd3;fill-opacity:1;stroke-width:1545.75"
       d="m 2081.9033,797.2427 -20.3131,-10.23597 -1.008,-29.47986 c -1.492,-43.63543 -3.7231,-87.27987 -7.0777,-138.45504 -6.5437,-99.82519 -7.7885,-121.00287 -7.1499,-121.64149 0.366,-0.36601 7.1722,2.5884 15.1248,6.56534 7.9526,3.97695 14.0348,6.78395 13.516,6.23779 -0.5188,-0.54616 -6.0835,-4.85679 -12.366,-9.57919 l -11.4226,-8.58617 6.9559,0.87182 c 3.8257,0.4795 47.9954,2.30246 98.1549,4.05103 50.1595,1.74857 94.7951,3.54289 99.1903,3.98738 7.0337,0.71132 10.1358,2.38379 25.8912,13.95873 9.8451,7.23282 17.9001,13.52061 17.9001,13.97287 0,0.45227 -4.6952,0.38892 -10.4338,-0.14077 -18.8854,-1.74315 -103.8556,-5.348 -151.6971,-6.43572 l -46.9728,-1.06796 1.0237,29.19489 c 0.563,16.05719 1.4445,35.28127 1.959,42.72018 l 0.9354,13.52529 h 100.404 100.4041 l 19.6244,14.29816 19.6245,14.29817 -112.6654,-0.37495 -112.6653,-0.37494 -6.2943,-4.62887 c -3.4618,-2.54587 -6.5795,-4.34364 -6.9281,-3.99503 -0.6167,0.61669 4.9641,111.00512 6.7451,133.42002 1.0151,12.77537 0.061,12.25215 17.6299,9.66497 19.2836,-2.83963 133.8653,-9.90582 180.0796,-11.10539 l 15.4575,-0.40123 18.089,13.03827 c 9.949,7.17104 17.8117,13.31558 17.4728,13.65451 -0.3389,0.33892 -22.7385,1.55383 -49.7768,2.6998 -102.4249,4.3411 -176.5412,11.7504 -196.7795,19.67182 -1.2806,0.50121 -11.413,-3.67522 -22.6318,-9.32846 z"
       id="path2592"
       transform="scale(0.26458333)" />
    <path
       style="fill:#b85fd3;fill-opacity:1;stroke-width:1545.75"
       d="m 1957.7661,823.71767 c -11.4347,-5.49184 -20.9553,-10.14993 -21.1566,-10.35131 -0.2014,-0.2014 -1.4765,-9.04683 -2.8336,-19.65655 -4.6379,-36.25912 -19.3642,-107.91094 -30.333,-147.5874 -5.4236,-19.61822 -29.2932,-98.67353 -30.0263,-99.44594 -1.9371,-2.04099 -37.8272,49.69389 -68.2195,98.337 -13.1295,21.01378 -25.1556,39.50483 -26.7248,41.09123 -2.7818,2.81234 -3.4329,2.58085 -26.0861,-9.27449 l -23.233,-12.15883 -11.1607,-30.91495 c -17.1063,-47.38417 -39.8525,-102.88834 -42.3428,-103.32278 -0.7639,-0.13326 -13.4392,31.75468 -28.1673,70.86209 -14.7282,39.1074 -34.4469,91.44649 -43.8194,116.30906 -9.3725,24.86258 -21.8174,59.51104 -27.6554,76.99659 -5.8379,17.48554 -10.9677,32.14519 -11.3995,32.57699 -1.086,1.08594 -41.3784,-21.0901 -42.1974,-23.22451 -0.6482,-1.68921 32.4817,-91.94282 58.5035,-159.37721 7.2174,-18.70354 24.7267,-66.00341 38.9096,-105.11082 14.1828,-39.10741 26.7687,-72.42039 27.9687,-74.02885 2.0751,-2.78166 3.3689,-2.20848 26.4924,11.73662 l 24.3107,14.66109 12.6874,33.09006 c 6.9781,18.19953 16.8189,42.82826 21.8685,54.73051 5.0496,11.90226 11.845,28.42243 15.1009,36.7115 3.2559,8.28907 6.3307,15.07104 6.8328,15.07104 1.0517,0 0.8807,0.26219 19.1005,-29.288 15.514,-25.16176 39.9122,-60.3035 58.913,-84.85465 7.0118,-9.06015 14.2978,-19.04554 16.1909,-22.18975 5.005,-8.31236 8.211,-8.69684 18.0493,-2.16456 19.4908,12.94119 31.5755,22.32792 29.7145,23.08066 -1.5161,0.61322 -1.4449,1.15831 0.3107,2.37747 1.2996,0.90251 2.6448,0.98809 3.1323,0.19927 2.0404,-3.30137 4.471,1.80761 7.7215,16.23035 4.471,19.83757 12.6601,48.86784 25.2902,89.65335 12.7184,41.07041 17.2212,58.19125 28.6606,108.97519 10.5379,46.78184 19.8241,100.67902 17.2914,100.35964 -0.4969,-0.0626 -10.2592,-4.60725 -21.694,-10.09911 z"
       id="path2594"
       transform="scale(0.26458333)" />
    <path
       style="fill:#b85fd3;fill-opacity:1;stroke-width:1545.75"
       d="m 1480.0531,1061.3895 c -12.8029,-5.3238 -24.9115,-12.1491 -43.2809,-24.3965 -14.0277,-9.3527 -29.8522,-19.666 -35.1658,-22.9185 -5.3135,-3.2526 -9.6609,-6.4722 -9.6609,-7.1547 0,-0.6825 -11.3033,-6.7689 -25.1184,-13.52516 -71.0898,-34.76667 -83.1327,-41.02322 -92.7448,-48.18275 -13.0436,-9.71547 -13.4696,-12.61238 -3.0915,-21.02225 15.2048,-12.32122 24.28,-21.93518 34.8611,-36.93064 5.9988,-8.50161 20.5105,-28.4394 32.2481,-44.3062 11.7376,-15.8668 25.642,-35.34322 30.8987,-43.28093 5.2567,-7.93771 9.6947,-14.62879 9.8621,-14.86907 0.5492,-0.78831 42.4539,24.78265 42.4539,25.90614 0,0.60268 -10.4101,15.29065 -23.1336,32.63993 -12.7235,17.34928 -29.8871,41.28236 -38.1413,53.18462 -8.2542,11.90225 -17.3983,24.63483 -20.3202,28.2946 -2.9219,3.65978 -4.9545,7.01218 -4.5169,7.44977 0.4376,0.4376 30.2517,-0.305 66.2536,-1.65022 36.0019,-1.34521 95.2353,-3.10621 131.6298,-3.91333 l 66.1717,-1.46749 19.5887,14.23966 19.5886,14.23966 -85.7604,0.98657 c -47.1682,0.54262 -97.9332,1.73027 -112.811,2.63923 -14.8778,0.90896 -42.0057,2.09487 -60.2842,2.63534 l -33.2335,0.98271 -11.5931,-8.61398 c -6.3762,-4.73769 -11.9412,-8.62821 -12.3667,-8.6456 -1.5951,-0.0652 -13.911,12.04689 -13.911,13.68079 0,0.93695 2.5195,2.75628 5.5989,4.04293 7.5624,3.15979 8.4588,2.92753 2.9027,-0.75213 -9.9652,-6.59967 0.7237,-2.5736 19.9629,7.51926 31.7413,16.65139 90.6057,52.15164 141.9541,85.61064 27.9492,18.2119 28.0319,18.752 1.1593,7.5776 z"
       id="path2596"
       transform="scale(0.26458333)" />
    <path
       style="fill:#b85fd3;fill-opacity:1;stroke-width:1545.75"
       d="m 1088.979,750.29413 c -33.162,-18.34974 -133.43968,-68.3738 -159.25571,-79.44561 -19.7999,-8.49164 -60.86663,-31.04697 -68.35556,-37.54332 -1.48778,-1.2906 -2.70505,-3.69113 -2.70505,-5.33452 0,-1.64339 7.41662,-11.09989 16.48139,-21.01445 30.15575,-32.98277 40.89667,-49.35115 69.42563,-105.79959 l 19.81793,-39.21248 21.43037,12.27494 c 16.4448,9.41931 21.2114,12.8456 20.4891,14.72789 -0.5177,1.34911 -10.73423,20.91921 -22.7034,43.48911 -23.77053,44.82337 -35.53826,64.05495 -50.41103,82.38492 l -9.72008,11.97955 8.17091,-0.0264 c 4.494,-0.0145 23.82161,-0.7021 42.95023,-1.52803 19.12862,-0.82591 94.25197,-2.52946 166.94067,-3.78567 72.6888,-1.2562 139.1173,-2.68472 147.6189,-3.17447 l 15.4575,-0.89046 18.7604,13.59058 18.7604,13.59058 -9.4859,0.32816 c -5.2173,0.18049 -60.6115,1.06689 -123.0984,1.96978 -145.1494,2.0973 -237.60066,5.57188 -274.08187,10.30077 l -7.44048,0.96447 51.49428,26.19734 c 73.53657,37.41117 106.82007,55.88333 121.43937,67.3981 19.3319,15.22667 17.8125,15.04389 -11.9796,-1.44115 z M 909.67234,653.07827 c -3.57331,-2.79508 -7.72874,-4.06825 -7.72874,-2.36799 0,0.98894 8.13079,5.3291 10.04736,5.36323 0.85016,0.0155 -0.19322,-1.33272 -2.31862,-2.99524 z m 1.54575,-3.86437 c -1.05836,-1.27524 -3.05639,-2.29396 -4.44008,-2.26384 -1.73107,0.0377 -1.31042,0.74382 1.34858,2.26384 4.96057,2.83572 5.44493,2.83572 3.0915,0 z"
       id="path2598"
       transform="scale(0.26458333)" />
  </g>
</svg>
